<svg width="783" height="752" viewBox="0 0 783 752" fill="none" xmlns="http://www.w3.org/2000/svg">
<g clip-path="url(#clip0_1077_1582)">
<path d="M405.161 236.084C401.694 242.092 394.352 243.487 385.867 238.782C374.078 232.247 364.549 216.395 364.592 203.387C364.603 198.517 365.949 194.743 368.242 192.261L368.296 192.209C368.856 191.712 369.48 191.267 370.18 190.875C370.191 190.875 371.343 190.223 372.926 189.344C374.207 188.952 375.596 188.796 377.092 188.869C372.247 197.121 377.361 211.07 381.539 217.977C384.413 222.734 390.066 229.455 396.504 233.229C399.294 234.874 402.233 235.96 405.161 236.084Z" fill="#B7830F"/>
<path d="M417.552 583.249L428.935 576.896L428.885 593.7L417.502 600.053L417.552 583.249Z" fill="#D69C0B"/>
<path d="M404.807 562.047L416.19 555.694L428.935 576.895L417.552 583.248L404.807 562.047Z" fill="#B7830F"/>
<path d="M404.878 537.993L416.261 533.205L416.19 555.696L404.807 562.049L404.878 537.993Z" fill="#D69C0B"/>
<path d="M418.302 522.603L429.685 516.25L429.656 526.013L418.273 532.365L418.302 522.603Z" fill="#D69C0B"/>
<path d="M398.385 489.467L409.767 483.114L429.685 516.248L418.302 522.602L398.385 489.467Z" fill="#B7830F"/>
<path d="M418.472 465.022L429.855 458.669L429.815 472.142L418.433 478.495L418.472 465.022Z" fill="#D69C0B"/>
<path d="M397.862 430.737L409.245 424.384L429.855 458.669L418.472 465.022L397.862 430.737Z" fill="#B7830F"/>
<path d="M397.898 418.41L409.281 412.057L409.245 424.384L397.862 430.737L397.898 418.41Z" fill="#D69C0B"/>
<path d="M417.502 600.052L428.885 593.7L396.115 615.459L384.732 621.812L417.502 600.052Z" fill="#B7830F"/>
<path d="M418.726 379.092L430.108 372.739L430.026 400.709L418.643 407.062L418.726 379.092Z" fill="#D69C0B"/>
<path d="M385.558 344.484C342.477 320.596 307.539 262.485 307.679 214.942C307.82 167.399 342.985 148.153 386.066 172.04C429.147 195.928 464.078 254.043 463.937 301.585C463.797 349.13 428.638 368.372 385.558 344.484ZM386.084 166.146C340.054 140.623 302.482 161.179 302.332 211.977C302.181 262.774 339.51 324.863 385.54 350.386C431.563 375.905 469.136 355.349 469.286 304.551C469.435 253.754 432.106 191.665 386.084 166.146Z" fill="#D69C0B"/>
<path d="M368.296 192.209C369.577 190.844 371.138 189.882 372.926 189.345C374.207 188.952 375.596 188.796 377.092 188.869C379.806 188.993 382.831 189.893 386.007 191.65C397.797 198.196 407.325 214.048 407.293 227.057C407.282 230.707 406.518 233.747 405.161 236.084C401.694 242.092 394.352 243.487 385.867 238.782C374.078 232.248 364.549 216.395 364.592 203.387C364.603 198.517 365.949 194.743 368.242 192.261L368.296 192.209ZM386.062 172.045C342.983 148.148 307.819 167.403 307.679 214.938C307.539 262.483 342.477 320.597 385.555 344.483C428.644 368.37 463.797 349.126 463.937 301.591C464.078 254.045 429.15 195.932 386.062 172.045Z" fill="#F0C3D3"/>
<path d="M385.54 350.387C339.51 324.864 302.181 262.775 302.332 211.977C302.482 161.18 340.054 140.624 386.084 166.147C432.106 191.666 469.436 253.755 469.286 304.552C469.136 355.35 431.563 375.906 385.54 350.387ZM386.127 149.522C331.71 119.348 287.448 143.566 287.27 203.626C287.131 250.82 314.261 306.099 352.294 342.257L351.841 495.529L351.707 541.047L351.523 603.406L362.26 609.355L363.021 351.592L374.061 357.715L373.301 615.481L384.733 621.812L417.502 600.052L417.552 583.249L404.808 562.048L404.878 537.992L418.273 532.365L418.303 522.602L398.384 489.468L418.433 478.496L418.472 465.023L397.862 430.736L397.898 418.409L418.643 407.063L418.726 379.093C456.846 385.154 484.208 360.098 484.347 312.903C484.525 252.843 440.549 179.699 386.127 149.522Z" fill="#FFC100"/>
<path d="M374.061 357.714L373.3 615.48L362.26 609.359L363.02 351.592L374.061 357.714Z" fill="#EAB82A"/>
<path d="M365.563 607.756V352.693L363.02 351.593L362.26 609.355L365.563 607.756Z" fill="#D69C0B"/>
<path d="M365.563 607.755L373.3 611.813V615.48L362.26 609.355L365.563 607.755Z" fill="#B7830F"/>
<path d="M491.897 273.897C485.305 244.957 470.632 215.337 451.155 190.491C435.74 170.827 417.317 154.152 397.509 143.169C370.126 127.985 345.312 126.575 327.395 136.574L316.013 142.927C333.93 132.928 358.743 134.338 386.127 149.522C405.934 160.505 424.357 177.18 439.773 196.844C459.25 221.691 473.923 251.309 480.514 280.25C483.039 291.336 484.378 302.323 484.347 312.903C484.259 342.739 473.292 363.726 455.605 373.598L466.988 367.245C484.674 357.373 495.641 336.386 495.73 306.55C495.761 295.97 494.422 284.984 491.897 273.897Z" fill="#D69C0B"/>
<path d="M368.296 192.209C369.577 190.844 371.138 189.882 372.926 189.345C374.207 188.952 375.596 188.796 377.092 188.869C379.806 188.993 382.831 189.893 386.007 191.65C397.797 198.196 407.325 214.048 407.293 227.057C407.282 230.707 406.518 233.747 405.161 236.084C401.694 242.092 394.352 243.487 385.867 238.782C374.078 232.248 364.549 216.395 364.592 203.387C364.603 198.517 365.949 194.743 368.242 192.261L368.296 192.209ZM386.062 172.045C342.983 148.148 307.819 167.403 307.679 214.938C307.539 262.483 342.477 320.597 385.555 344.483C428.644 368.37 463.797 349.126 463.937 301.591C464.078 254.045 429.15 195.932 386.062 172.045Z" fill="#FFC100"/>
</g>
<defs>
<clipPath id="clip0_1077_1582">
<rect width="783" height="752" fill="white"/>
</clipPath>
</defs>
</svg>
